<svg width="18" height="27" viewBox="0 0 18 27" fill="none" xmlns="http://www.w3.org/2000/svg">
<path d="M14.31 12.4625C15.069 11.7317 15.6021 10.7983 15.8459 9.77324C16.0897 8.74821 16.034 7.67472 15.6853 6.68045C15.3366 5.68619 14.7097 4.813 13.8791 4.16474C13.0485 3.51649 12.0492 3.12046 11 3.02375V1C11 0.734784 10.8946 0.48043 10.7071 0.292893C10.5196 0.105357 10.2652 0 10 0C9.73478 0 9.48043 0.105357 9.29289 0.292893C9.10536 0.48043 9 0.734784 9 1V3H7V1C7 0.734784 6.89464 0.48043 6.70711 0.292893C6.51957 0.105357 6.26522 0 6 0C5.73478 0 5.48043 0.105357 5.29289 0.292893C5.10536 0.48043 5 0.734784 5 1V3H1C0.734784 3 0.48043 3.10536 0.292893 3.29289C0.105357 3.48043 0 3.73478 0 4C0 4.26522 0.105357 4.51957 0.292893 4.70711C0.48043 4.89464 0.734784 5 1 5H2V22H1C0.734784 22 0.48043 22.1054 0.292893 22.2929C0.105357 22.4804 0 22.7348 0 23C0 23.2652 0.105357 23.5196 0.292893 23.7071C0.48043 23.8946 0.734784 24 1 24H5V26C5 26.2652 5.10536 26.5196 5.29289 26.7071C5.48043 26.8946 5.73478 27 6 27C6.26522 27 6.51957 26.8946 6.70711 26.7071C6.89464 26.5196 7 26.2652 7 26V24H9V26C9 26.2652 9.10536 26.5196 9.29289 26.7071C9.48043 26.8946 9.73478 27 10 27C10.2652 27 10.5196 26.8946 10.7071 26.7071C10.8946 26.5196 11 26.2652 11 26V24H12C13.3868 24 14.7309 23.5196 15.8035 22.6404C16.876 21.7613 17.611 20.5378 17.8832 19.1779C18.1555 17.8181 17.9483 16.4059 17.2968 15.1816C16.6454 13.9573 15.5899 12.9964 14.31 12.4625ZM14 8.5C14 9.42826 13.6313 10.3185 12.9749 10.9749C12.3185 11.6313 11.4283 12 10.5 12H4V5H10.5C11.4283 5 12.3185 5.36875 12.9749 6.02513C13.6313 6.6815 14 7.57174 14 8.5ZM12 22H4V14H12C13.0609 14 14.0783 14.4214 14.8284 15.1716C15.5786 15.9217 16 16.9391 16 18C16 19.0609 15.5786 20.0783 14.8284 20.8284C14.0783 21.5786 13.0609 22 12 22Z" fill="#C8FCEA"/>
</svg>
