<svg width="33" height="33" viewBox="0 0 33 33" fill="none" xmlns="http://www.w3.org/2000/svg">
<path d="M29.2466 22.8731C29.1324 22.9382 29.0065 22.9802 28.876 22.9966C28.7456 23.013 28.6132 23.0035 28.4864 22.9687C28.3596 22.9338 28.2409 22.8743 28.1371 22.7936C28.0334 22.7128 27.9466 22.6124 27.8816 22.4981L25.5066 18.3481C24.1259 19.2817 22.6027 19.985 20.9966 20.4306L21.7304 24.8331C21.752 24.9627 21.7479 25.0953 21.7183 25.2233C21.6887 25.3513 21.6341 25.4722 21.5577 25.5792C21.4813 25.6861 21.3846 25.7769 21.2731 25.8464C21.1616 25.9159 21.0375 25.9628 20.9079 25.9843C20.8546 25.9931 20.8007 25.9977 20.7466 25.9981C20.5101 25.9977 20.2813 25.9135 20.1009 25.7604C19.9206 25.6073 19.8004 25.3952 19.7616 25.1618L19.0404 20.8393C17.5194 21.051 15.9764 21.051 14.4554 20.8393L13.7341 25.1618C13.6953 25.3956 13.5747 25.608 13.3939 25.7612C13.213 25.9144 12.9836 25.9983 12.7466 25.9981C12.6914 25.9978 12.6362 25.9932 12.5816 25.9843C12.452 25.9628 12.3279 25.9159 12.2164 25.8464C12.1049 25.7769 12.0082 25.6861 11.9318 25.5792C11.8554 25.4722 11.8008 25.3513 11.7712 25.2233C11.7416 25.0953 11.7375 24.9627 11.7591 24.8331L12.4966 20.4306C10.8912 19.9836 9.36889 19.279 7.98914 18.3443L5.62164 22.4981C5.48903 22.7291 5.27006 22.8981 5.0129 22.9677C4.75574 23.0373 4.48146 23.0019 4.25039 22.8693C4.01932 22.7367 3.85039 22.5178 3.78077 22.2606C3.71115 22.0034 3.74653 21.7291 3.87914 21.4981L6.37914 17.1231C5.50101 16.3644 4.69354 15.5277 3.96664 14.6231C3.87599 14.5219 3.80692 14.4032 3.76363 14.2744C3.72035 14.1456 3.70378 14.0094 3.71491 13.874C3.72605 13.7385 3.76466 13.6068 3.8284 13.4868C3.89214 13.3668 3.97966 13.2611 4.08563 13.176C4.1916 13.091 4.31379 13.0284 4.44474 12.9922C4.57569 12.9559 4.71265 12.9467 4.84727 12.9652C4.98189 12.9836 5.11133 13.0293 5.22771 13.0994C5.34409 13.1696 5.44495 13.2627 5.52414 13.3731C7.59914 15.9406 11.2291 18.9981 16.7466 18.9981C22.2641 18.9981 25.8941 15.9368 27.9691 13.3731C28.0474 13.2604 28.1481 13.1651 28.2648 13.0929C28.3815 13.0208 28.5118 12.9735 28.6476 12.9539C28.7834 12.9344 28.9218 12.9429 29.0541 12.9791C29.1865 13.0153 29.31 13.0783 29.4169 13.1643C29.5238 13.2503 29.6119 13.3573 29.6757 13.4788C29.7395 13.6002 29.7776 13.7335 29.7877 13.8704C29.7977 14.0072 29.7795 14.1446 29.7342 14.2741C29.6889 14.4036 29.6174 14.5224 29.5241 14.6231C28.7972 15.5277 27.9898 16.3644 27.1116 17.1231L29.6116 21.4981C29.6788 21.6121 29.7226 21.7384 29.7405 21.8695C29.7585 22.0006 29.7503 22.1339 29.7163 22.2618C29.6824 22.3897 29.6234 22.5096 29.5427 22.6145C29.4621 22.7194 29.3615 22.8073 29.2466 22.8731Z" fill="#C8FCEA"/>
</svg>
