<svg width="267" height="148" viewBox="0 0 267 148" fill="none" xmlns="http://www.w3.org/2000/svg">
<path d="M7.74219 123.258H9.89062C9.83333 124.018 9.6224 124.693 9.25781 125.281C8.89323 125.865 8.38542 126.323 7.73438 126.656C7.08333 126.99 6.29427 127.156 5.36719 127.156C4.65365 127.156 4.01042 127.031 3.4375 126.781C2.86979 126.526 2.38281 126.164 1.97656 125.695C1.57552 125.221 1.26823 124.654 1.05469 123.992C0.841146 123.326 0.734375 122.578 0.734375 121.75V120.883C0.734375 120.055 0.84375 119.307 1.0625 118.641C1.28125 117.974 1.59375 117.406 2 116.938C2.41146 116.464 2.90365 116.099 3.47656 115.844C4.05469 115.589 4.70052 115.461 5.41406 115.461C6.34115 115.461 7.125 115.633 7.76562 115.977C8.40625 116.315 8.90365 116.781 9.25781 117.375C9.61198 117.969 9.82552 118.651 9.89844 119.422H7.75C7.70833 118.943 7.60417 118.536 7.4375 118.203C7.27604 117.87 7.03125 117.617 6.70312 117.445C6.38021 117.268 5.95052 117.18 5.41406 117.18C4.9974 117.18 4.63021 117.258 4.3125 117.414C4 117.57 3.73958 117.805 3.53125 118.117C3.32292 118.424 3.16667 118.81 3.0625 119.273C2.95833 119.732 2.90625 120.263 2.90625 120.867V121.75C2.90625 122.328 2.95312 122.846 3.04688 123.305C3.14062 123.763 3.28646 124.151 3.48438 124.469C3.68229 124.786 3.9375 125.029 4.25 125.195C4.5625 125.362 4.9349 125.445 5.36719 125.445C5.89323 125.445 6.32031 125.362 6.64844 125.195C6.98177 125.029 7.23438 124.784 7.40625 124.461C7.58333 124.138 7.69531 123.737 7.74219 123.258ZM11.0312 122.859V122.695C11.0312 122.076 11.1198 121.505 11.2969 120.984C11.474 120.458 11.7318 120.003 12.0703 119.617C12.4089 119.232 12.8229 118.932 13.3125 118.719C13.8021 118.5 14.3594 118.391 14.9844 118.391C15.6198 118.391 16.1823 118.5 16.6719 118.719C17.1667 118.932 17.5833 119.232 17.9219 119.617C18.2604 120.003 18.5182 120.458 18.6953 120.984C18.8724 121.505 18.9609 122.076 18.9609 122.695V122.859C18.9609 123.474 18.8724 124.044 18.6953 124.57C18.5182 125.091 18.2604 125.547 17.9219 125.938C17.5833 126.323 17.1693 126.622 16.6797 126.836C16.1901 127.049 15.6302 127.156 15 127.156C14.375 127.156 13.8151 127.049 13.3203 126.836C12.8255 126.622 12.4089 126.323 12.0703 125.938C11.7318 125.547 11.474 125.091 11.2969 124.57C11.1198 124.044 11.0312 123.474 11.0312 122.859ZM13.0938 122.695V122.859C13.0938 123.229 13.1302 123.576 13.2031 123.898C13.276 124.221 13.388 124.505 13.5391 124.75C13.6901 124.995 13.8854 125.188 14.125 125.328C14.3698 125.464 14.6615 125.531 15 125.531C15.3333 125.531 15.6198 125.464 15.8594 125.328C16.099 125.188 16.2943 124.995 16.4453 124.75C16.6016 124.505 16.7161 124.221 16.7891 123.898C16.862 123.576 16.8984 123.229 16.8984 122.859V122.695C16.8984 122.331 16.862 121.99 16.7891 121.672C16.7161 121.349 16.6016 121.065 16.4453 120.82C16.2943 120.57 16.0964 120.375 15.8516 120.234C15.612 120.089 15.3229 120.016 14.9844 120.016C14.651 120.016 14.3646 120.089 14.125 120.234C13.8854 120.375 13.6901 120.57 13.5391 120.82C13.388 121.065 13.276 121.349 13.2031 121.672C13.1302 121.99 13.0938 122.331 13.0938 122.695ZM22.4844 120.352V127H20.4219V118.547H22.3594L22.4844 120.352ZM22.1562 122.469H21.5469C21.5521 121.854 21.6354 121.297 21.7969 120.797C21.9583 120.297 22.1849 119.867 22.4766 119.508C22.7734 119.148 23.125 118.872 23.5312 118.68C23.9375 118.487 24.3906 118.391 24.8906 118.391C25.2969 118.391 25.6641 118.448 25.9922 118.562C26.3203 118.677 26.6016 118.859 26.8359 119.109C27.0755 119.359 27.2578 119.688 27.3828 120.094C27.513 120.495 27.5781 120.99 27.5781 121.578V127H25.5V121.562C25.5 121.177 25.4427 120.872 25.3281 120.648C25.2188 120.424 25.0573 120.266 24.8438 120.172C24.6354 120.078 24.3776 120.031 24.0703 120.031C23.7526 120.031 23.474 120.096 23.2344 120.227C23 120.352 22.8021 120.526 22.6406 120.75C22.4844 120.974 22.3646 121.232 22.2812 121.523C22.1979 121.815 22.1562 122.13 22.1562 122.469ZM33.3984 118.547V120.031H28.5547V118.547H33.3984ZM29.8516 116.469H31.9219V124.562C31.9219 124.812 31.9557 125.005 32.0234 125.141C32.0911 125.276 32.1927 125.367 32.3281 125.414C32.4635 125.461 32.625 125.484 32.8125 125.484C32.9479 125.484 33.0729 125.477 33.1875 125.461C33.3021 125.445 33.3984 125.43 33.4766 125.414L33.4844 126.961C33.3125 127.018 33.1172 127.065 32.8984 127.102C32.6849 127.138 32.4427 127.156 32.1719 127.156C31.7083 127.156 31.3021 127.078 30.9531 126.922C30.6042 126.76 30.3333 126.503 30.1406 126.148C29.9479 125.789 29.8516 125.315 29.8516 124.727V116.469ZM39.4297 125.203V121.305C39.4297 121.018 39.3802 120.771 39.2812 120.562C39.1823 120.354 39.0312 120.193 38.8281 120.078C38.625 119.964 38.3672 119.906 38.0547 119.906C37.7786 119.906 37.5365 119.953 37.3281 120.047C37.125 120.141 36.9688 120.273 36.8594 120.445C36.75 120.612 36.6953 120.805 36.6953 121.023H34.625C34.625 120.674 34.7083 120.344 34.875 120.031C35.0417 119.714 35.2786 119.432 35.5859 119.188C35.8984 118.938 36.2708 118.742 36.7031 118.602C37.1406 118.461 37.6302 118.391 38.1719 118.391C38.8125 118.391 39.3828 118.5 39.8828 118.719C40.388 118.932 40.7839 119.255 41.0703 119.688C41.362 120.12 41.5078 120.664 41.5078 121.32V125.008C41.5078 125.43 41.5339 125.792 41.5859 126.094C41.6432 126.391 41.7266 126.648 41.8359 126.867V127H39.7344C39.6354 126.786 39.5599 126.516 39.5078 126.188C39.4557 125.854 39.4297 125.526 39.4297 125.203ZM39.7188 121.852L39.7344 123.078H38.4297C38.1068 123.078 37.8229 123.112 37.5781 123.18C37.3333 123.242 37.1328 123.336 36.9766 123.461C36.8203 123.581 36.7031 123.727 36.625 123.898C36.5469 124.065 36.5078 124.255 36.5078 124.469C36.5078 124.677 36.5547 124.865 36.6484 125.031C36.7474 125.198 36.888 125.331 37.0703 125.43C37.2578 125.523 37.4766 125.57 37.7266 125.57C38.0911 125.57 38.4089 125.497 38.6797 125.352C38.9505 125.201 39.1615 125.018 39.3125 124.805C39.4635 124.591 39.5443 124.388 39.5547 124.195L40.1484 125.086C40.0755 125.299 39.9661 125.526 39.8203 125.766C39.6745 126.005 39.487 126.229 39.2578 126.438C39.0286 126.646 38.7526 126.818 38.4297 126.953C38.1068 127.089 37.7318 127.156 37.3047 127.156C36.7578 127.156 36.2682 127.047 35.8359 126.828C35.4036 126.609 35.0625 126.31 34.8125 125.93C34.5625 125.549 34.4375 125.117 34.4375 124.633C34.4375 124.185 34.5208 123.789 34.6875 123.445C34.8542 123.102 35.1016 122.812 35.4297 122.578C35.7578 122.339 36.1641 122.159 36.6484 122.039C37.138 121.914 37.6979 121.852 38.3281 121.852H39.7188ZM1.08594 134.625H5.21875C6.08333 134.625 6.82552 134.755 7.44531 135.016C8.0651 135.276 8.54167 135.661 8.875 136.172C9.20833 136.682 9.375 137.31 9.375 138.055C9.375 138.643 9.27083 139.154 9.0625 139.586C8.85417 140.018 8.5599 140.38 8.17969 140.672C7.80469 140.964 7.36198 141.193 6.85156 141.359L6.17969 141.703H2.53125L2.51562 140.008H5.24219C5.6849 140.008 6.05208 139.93 6.34375 139.773C6.63542 139.617 6.85417 139.401 7 139.125C7.15104 138.849 7.22656 138.534 7.22656 138.18C7.22656 137.799 7.15365 137.471 7.00781 137.195C6.86198 136.914 6.64062 136.698 6.34375 136.547C6.04688 136.396 5.67188 136.32 5.21875 136.32H3.23438V146H1.08594V134.625ZM7.50781 146L4.875 140.906L7.14844 140.898L9.8125 145.891V146H7.50781ZM15.6016 132.812V135.133H14.3906V132.812H15.6016ZM15.4531 145.57V147.664H14.25V145.57H15.4531ZM16.4688 143.023C16.4688 142.727 16.4115 142.469 16.2969 142.25C16.1875 142.031 16.0026 141.836 15.7422 141.664C15.487 141.492 15.1432 141.328 14.7109 141.172C14.0391 140.927 13.4505 140.659 12.9453 140.367C12.4401 140.07 12.0469 139.703 11.7656 139.266C11.4896 138.828 11.3516 138.276 11.3516 137.609C11.3516 136.969 11.5 136.414 11.7969 135.945C12.099 135.471 12.5182 135.107 13.0547 134.852C13.5911 134.591 14.2135 134.461 14.9219 134.461C15.474 134.461 15.9688 134.544 16.4062 134.711C16.849 134.872 17.2266 135.109 17.5391 135.422C17.8568 135.734 18.099 136.12 18.2656 136.578C18.4375 137.031 18.5234 137.549 18.5234 138.133H16.4609C16.4609 137.81 16.4245 137.523 16.3516 137.273C16.2786 137.023 16.1745 136.812 16.0391 136.641C15.9036 136.464 15.7396 136.331 15.5469 136.242C15.3594 136.154 15.1458 136.109 14.9062 136.109C14.5625 136.109 14.2786 136.174 14.0547 136.305C13.8359 136.435 13.6745 136.612 13.5703 136.836C13.4714 137.06 13.4219 137.318 13.4219 137.609C13.4219 137.891 13.474 138.138 13.5781 138.352C13.6875 138.56 13.8698 138.75 14.125 138.922C14.3854 139.094 14.7422 139.268 15.1953 139.445C15.8724 139.695 16.4609 139.971 16.9609 140.273C17.4609 140.57 17.849 140.935 18.125 141.367C18.401 141.799 18.5391 142.346 18.5391 143.008C18.5391 143.685 18.3828 144.258 18.0703 144.727C17.763 145.195 17.3307 145.552 16.7734 145.797C16.2161 146.042 15.5677 146.164 14.8281 146.164C14.3542 146.164 13.8854 146.102 13.4219 145.977C12.9583 145.852 12.5365 145.648 12.1562 145.367C11.7812 145.081 11.4818 144.703 11.2578 144.234C11.0339 143.76 10.9219 143.18 10.9219 142.492H12.9922C12.9922 142.888 13.0443 143.216 13.1484 143.477C13.2526 143.737 13.3932 143.945 13.5703 144.102C13.7474 144.253 13.9453 144.359 14.1641 144.422C14.3828 144.484 14.6042 144.516 14.8281 144.516C15.1927 144.516 15.4948 144.453 15.7344 144.328C15.9792 144.203 16.1615 144.029 16.2812 143.805C16.4062 143.576 16.4688 143.315 16.4688 143.023ZM24.2891 140.57L25.9609 138.43L23.5078 137.727L23.9531 136.391L26.375 137.344L26.2422 134.625H27.6797L27.5391 137.391L29.9219 136.453L30.3516 137.805L27.8594 138.516L29.4922 140.609L28.3281 141.438L26.8828 139.156L25.4531 141.367L24.2891 140.57ZM31.4766 140.57L33.1484 138.43L30.6953 137.727L31.1406 136.391L33.5625 137.344L33.4297 134.625H34.8672L34.7266 137.391L37.1094 136.453L37.5391 137.805L35.0469 138.516L36.6797 140.609L35.5156 141.438L34.0703 139.156L32.6406 141.367L31.4766 140.57ZM38.6641 140.57L40.3359 138.43L37.8828 137.727L38.3281 136.391L40.75 137.344L40.6172 134.625H42.0547L41.9141 137.391L44.2969 136.453L44.7266 137.805L42.2344 138.516L43.8672 140.609L42.7031 141.438L41.2578 139.156L39.8281 141.367L38.6641 140.57ZM45.8516 140.57L47.5234 138.43L45.0703 137.727L45.5156 136.391L47.9375 137.344L47.8047 134.625H49.2422L49.1016 137.391L51.4844 136.453L51.9141 137.805L49.4219 138.516L51.0547 140.609L49.8906 141.438L48.4453 139.156L47.0156 141.367L45.8516 140.57ZM53.0391 140.57L54.7109 138.43L52.2578 137.727L52.7031 136.391L55.125 137.344L54.9922 134.625H56.4297L56.2891 137.391L58.6719 136.453L59.1016 137.805L56.6094 138.516L58.2422 140.609L57.0781 141.438L55.6328 139.156L54.2031 141.367L53.0391 140.57ZM60.2266 140.57L61.8984 138.43L59.4453 137.727L59.8906 136.391L62.3125 137.344L62.1797 134.625H63.6172L63.4766 137.391L65.8594 136.453L66.2891 137.805L63.7969 138.516L65.4297 140.609L64.2656 141.438L62.8203 139.156L61.3906 141.367L60.2266 140.57ZM67.4141 140.57L69.0859 138.43L66.6328 137.727L67.0781 136.391L69.5 137.344L69.3672 134.625H70.8047L70.6641 137.391L73.0469 136.453L73.4766 137.805L70.9844 138.516L72.6172 140.609L71.4531 141.438L70.0078 139.156L68.5781 141.367L67.4141 140.57ZM74.6016 140.57L76.2734 138.43L73.8203 137.727L74.2656 136.391L76.6875 137.344L76.5547 134.625H77.9922L77.8516 137.391L80.2344 136.453L80.6641 137.805L78.1719 138.516L79.8047 140.609L78.6406 141.438L77.1953 139.156L75.7656 141.367L74.6016 140.57Z" fill="white"/>
<path d="M264.535 19.9294C264.421 19.9945 264.295 20.0365 264.164 20.0529C264.034 20.0693 263.902 20.0598 263.775 20.025C263.648 19.9901 263.529 19.9306 263.426 19.8499C263.322 19.7691 263.235 19.6687 263.17 19.5544L260.795 15.4044C259.414 16.338 257.891 17.0413 256.285 17.4869L257.019 21.8894C257.04 22.019 257.036 22.1516 257.007 22.2796C256.977 22.4076 256.923 22.5285 256.846 22.6355C256.77 22.7424 256.673 22.8332 256.562 22.9027C256.45 22.9722 256.326 23.0191 256.196 23.0406C256.143 23.0494 256.089 23.054 256.035 23.0544C255.799 23.054 255.57 22.9698 255.389 22.8167C255.209 22.6636 255.089 22.4515 255.05 22.2181L254.329 17.8956C252.808 18.1073 251.265 18.1073 249.744 17.8956L249.023 22.2181C248.984 22.4519 248.863 22.6644 248.682 22.8175C248.501 22.9707 248.272 23.0546 248.035 23.0544C247.98 23.0542 247.925 23.0496 247.87 23.0406C247.74 23.0191 247.616 22.9722 247.505 22.9027C247.393 22.8332 247.297 22.7424 247.22 22.6355C247.144 22.5285 247.089 22.4076 247.06 22.2796C247.03 22.1516 247.026 22.019 247.048 21.8894L247.785 17.4869C246.18 17.0399 244.657 16.3353 243.278 15.4006L240.91 19.5544C240.777 19.7855 240.559 19.9544 240.301 20.024C240.044 20.0936 239.77 20.0582 239.539 19.9256C239.308 19.793 239.139 19.5741 239.069 19.3169C239 19.0597 239.035 18.7855 239.168 18.5544L241.668 14.1794C240.789 13.4207 239.982 12.584 239.255 11.6794C239.164 11.5782 239.095 11.4595 239.052 11.3307C239.009 11.2019 238.992 11.0657 239.003 10.9303C239.014 10.7948 239.053 10.6631 239.117 10.5431C239.181 10.4231 239.268 10.3174 239.374 10.2323C239.48 10.1473 239.602 10.0847 239.733 10.0485C239.864 10.0122 240.001 10.003 240.136 10.0215C240.27 10.0399 240.4 10.0856 240.516 10.1557C240.633 10.2259 240.733 10.319 240.813 10.4294C242.888 12.9969 246.518 16.0544 252.035 16.0544C257.553 16.0544 261.183 12.9931 263.258 10.4294C263.336 10.3167 263.437 10.2214 263.553 10.1492C263.67 10.0771 263.8 10.0298 263.936 10.0102C264.072 9.99066 264.21 9.99923 264.343 10.0354C264.475 10.0716 264.598 10.1346 264.705 10.2206C264.812 10.3066 264.9 10.4136 264.964 10.5351C265.028 10.6565 265.066 10.7898 265.076 10.9267C265.086 11.0635 265.068 11.2009 265.023 11.3304C264.977 11.4599 264.906 11.5787 264.813 11.6794C264.086 12.584 263.278 13.4207 262.4 14.1794L264.9 18.5544C264.967 18.6684 265.011 18.7947 265.029 18.9258C265.047 19.0569 265.039 19.1902 265.005 19.3181C264.971 19.446 264.912 19.5659 264.831 19.6708C264.751 19.7758 264.65 19.8636 264.535 19.9294Z" fill="#C8FCEA"/>
</svg>
