<svg width="266" height="149" viewBox="0 0 266 149" fill="none" xmlns="http://www.w3.org/2000/svg">
<path d="M7.74219 123.258H9.89062C9.83333 124.018 9.6224 124.693 9.25781 125.281C8.89323 125.865 8.38542 126.323 7.73438 126.656C7.08333 126.99 6.29427 127.156 5.36719 127.156C4.65365 127.156 4.01042 127.031 3.4375 126.781C2.86979 126.526 2.38281 126.164 1.97656 125.695C1.57552 125.221 1.26823 124.654 1.05469 123.992C0.841146 123.326 0.734375 122.578 0.734375 121.75V120.883C0.734375 120.055 0.84375 119.307 1.0625 118.641C1.28125 117.974 1.59375 117.406 2 116.938C2.41146 116.464 2.90365 116.099 3.47656 115.844C4.05469 115.589 4.70052 115.461 5.41406 115.461C6.34115 115.461 7.125 115.633 7.76562 115.977C8.40625 116.315 8.90365 116.781 9.25781 117.375C9.61198 117.969 9.82552 118.651 9.89844 119.422H7.75C7.70833 118.943 7.60417 118.536 7.4375 118.203C7.27604 117.87 7.03125 117.617 6.70312 117.445C6.38021 117.268 5.95052 117.18 5.41406 117.18C4.9974 117.18 4.63021 117.258 4.3125 117.414C4 117.57 3.73958 117.805 3.53125 118.117C3.32292 118.424 3.16667 118.81 3.0625 119.273C2.95833 119.732 2.90625 120.263 2.90625 120.867V121.75C2.90625 122.328 2.95312 122.846 3.04688 123.305C3.14062 123.763 3.28646 124.151 3.48438 124.469C3.68229 124.786 3.9375 125.029 4.25 125.195C4.5625 125.362 4.9349 125.445 5.36719 125.445C5.89323 125.445 6.32031 125.362 6.64844 125.195C6.98177 125.029 7.23438 124.784 7.40625 124.461C7.58333 124.138 7.69531 123.737 7.74219 123.258ZM11.0312 122.859V122.695C11.0312 122.076 11.1198 121.505 11.2969 120.984C11.474 120.458 11.7318 120.003 12.0703 119.617C12.4089 119.232 12.8229 118.932 13.3125 118.719C13.8021 118.5 14.3594 118.391 14.9844 118.391C15.6198 118.391 16.1823 118.5 16.6719 118.719C17.1667 118.932 17.5833 119.232 17.9219 119.617C18.2604 120.003 18.5182 120.458 18.6953 120.984C18.8724 121.505 18.9609 122.076 18.9609 122.695V122.859C18.9609 123.474 18.8724 124.044 18.6953 124.57C18.5182 125.091 18.2604 125.547 17.9219 125.938C17.5833 126.323 17.1693 126.622 16.6797 126.836C16.1901 127.049 15.6302 127.156 15 127.156C14.375 127.156 13.8151 127.049 13.3203 126.836C12.8255 126.622 12.4089 126.323 12.0703 125.938C11.7318 125.547 11.474 125.091 11.2969 124.57C11.1198 124.044 11.0312 123.474 11.0312 122.859ZM13.0938 122.695V122.859C13.0938 123.229 13.1302 123.576 13.2031 123.898C13.276 124.221 13.388 124.505 13.5391 124.75C13.6901 124.995 13.8854 125.188 14.125 125.328C14.3698 125.464 14.6615 125.531 15 125.531C15.3333 125.531 15.6198 125.464 15.8594 125.328C16.099 125.188 16.2943 124.995 16.4453 124.75C16.6016 124.505 16.7161 124.221 16.7891 123.898C16.862 123.576 16.8984 123.229 16.8984 122.859V122.695C16.8984 122.331 16.862 121.99 16.7891 121.672C16.7161 121.349 16.6016 121.065 16.4453 120.82C16.2943 120.57 16.0964 120.375 15.8516 120.234C15.612 120.089 15.3229 120.016 14.9844 120.016C14.651 120.016 14.3646 120.089 14.125 120.234C13.8854 120.375 13.6901 120.57 13.5391 120.82C13.388 121.065 13.276 121.349 13.2031 121.672C13.1302 121.99 13.0938 122.331 13.0938 122.695ZM22.4844 120.352V127H20.4219V118.547H22.3594L22.4844 120.352ZM22.1562 122.469H21.5469C21.5521 121.854 21.6354 121.297 21.7969 120.797C21.9583 120.297 22.1849 119.867 22.4766 119.508C22.7734 119.148 23.125 118.872 23.5312 118.68C23.9375 118.487 24.3906 118.391 24.8906 118.391C25.2969 118.391 25.6641 118.448 25.9922 118.562C26.3203 118.677 26.6016 118.859 26.8359 119.109C27.0755 119.359 27.2578 119.688 27.3828 120.094C27.513 120.495 27.5781 120.99 27.5781 121.578V127H25.5V121.562C25.5 121.177 25.4427 120.872 25.3281 120.648C25.2188 120.424 25.0573 120.266 24.8438 120.172C24.6354 120.078 24.3776 120.031 24.0703 120.031C23.7526 120.031 23.474 120.096 23.2344 120.227C23 120.352 22.8021 120.526 22.6406 120.75C22.4844 120.974 22.3646 121.232 22.2812 121.523C22.1979 121.815 22.1562 122.13 22.1562 122.469ZM33.3984 118.547V120.031H28.5547V118.547H33.3984ZM29.8516 116.469H31.9219V124.562C31.9219 124.812 31.9557 125.005 32.0234 125.141C32.0911 125.276 32.1927 125.367 32.3281 125.414C32.4635 125.461 32.625 125.484 32.8125 125.484C32.9479 125.484 33.0729 125.477 33.1875 125.461C33.3021 125.445 33.3984 125.43 33.4766 125.414L33.4844 126.961C33.3125 127.018 33.1172 127.065 32.8984 127.102C32.6849 127.138 32.4427 127.156 32.1719 127.156C31.7083 127.156 31.3021 127.078 30.9531 126.922C30.6042 126.76 30.3333 126.503 30.1406 126.148C29.9479 125.789 29.8516 125.315 29.8516 124.727V116.469ZM39.4297 125.203V121.305C39.4297 121.018 39.3802 120.771 39.2812 120.562C39.1823 120.354 39.0312 120.193 38.8281 120.078C38.625 119.964 38.3672 119.906 38.0547 119.906C37.7786 119.906 37.5365 119.953 37.3281 120.047C37.125 120.141 36.9688 120.273 36.8594 120.445C36.75 120.612 36.6953 120.805 36.6953 121.023H34.625C34.625 120.674 34.7083 120.344 34.875 120.031C35.0417 119.714 35.2786 119.432 35.5859 119.188C35.8984 118.938 36.2708 118.742 36.7031 118.602C37.1406 118.461 37.6302 118.391 38.1719 118.391C38.8125 118.391 39.3828 118.5 39.8828 118.719C40.388 118.932 40.7839 119.255 41.0703 119.688C41.362 120.12 41.5078 120.664 41.5078 121.32V125.008C41.5078 125.43 41.5339 125.792 41.5859 126.094C41.6432 126.391 41.7266 126.648 41.8359 126.867V127H39.7344C39.6354 126.786 39.5599 126.516 39.5078 126.188C39.4557 125.854 39.4297 125.526 39.4297 125.203ZM39.7188 121.852L39.7344 123.078H38.4297C38.1068 123.078 37.8229 123.112 37.5781 123.18C37.3333 123.242 37.1328 123.336 36.9766 123.461C36.8203 123.581 36.7031 123.727 36.625 123.898C36.5469 124.065 36.5078 124.255 36.5078 124.469C36.5078 124.677 36.5547 124.865 36.6484 125.031C36.7474 125.198 36.888 125.331 37.0703 125.43C37.2578 125.523 37.4766 125.57 37.7266 125.57C38.0911 125.57 38.4089 125.497 38.6797 125.352C38.9505 125.201 39.1615 125.018 39.3125 124.805C39.4635 124.591 39.5443 124.388 39.5547 124.195L40.1484 125.086C40.0755 125.299 39.9661 125.526 39.8203 125.766C39.6745 126.005 39.487 126.229 39.2578 126.438C39.0286 126.646 38.7526 126.818 38.4297 126.953C38.1068 127.089 37.7318 127.156 37.3047 127.156C36.7578 127.156 36.2682 127.047 35.8359 126.828C35.4036 126.609 35.0625 126.31 34.8125 125.93C34.5625 125.549 34.4375 125.117 34.4375 124.633C34.4375 124.185 34.5208 123.789 34.6875 123.445C34.8542 123.102 35.1016 122.812 35.4297 122.578C35.7578 122.339 36.1641 122.159 36.6484 122.039C37.138 121.914 37.6979 121.852 38.3281 121.852H39.7188ZM1.08594 134.625H5.21875C6.08333 134.625 6.82552 134.755 7.44531 135.016C8.0651 135.276 8.54167 135.661 8.875 136.172C9.20833 136.682 9.375 137.31 9.375 138.055C9.375 138.643 9.27083 139.154 9.0625 139.586C8.85417 140.018 8.5599 140.38 8.17969 140.672C7.80469 140.964 7.36198 141.193 6.85156 141.359L6.17969 141.703H2.53125L2.51562 140.008H5.24219C5.6849 140.008 6.05208 139.93 6.34375 139.773C6.63542 139.617 6.85417 139.401 7 139.125C7.15104 138.849 7.22656 138.534 7.22656 138.18C7.22656 137.799 7.15365 137.471 7.00781 137.195C6.86198 136.914 6.64062 136.698 6.34375 136.547C6.04688 136.396 5.67188 136.32 5.21875 136.32H3.23438V146H1.08594V134.625ZM7.50781 146L4.875 140.906L7.14844 140.898L9.8125 145.891V146H7.50781ZM15.6016 132.812V135.133H14.3906V132.812H15.6016ZM15.4531 145.57V147.664H14.25V145.57H15.4531ZM16.4688 143.023C16.4688 142.727 16.4115 142.469 16.2969 142.25C16.1875 142.031 16.0026 141.836 15.7422 141.664C15.487 141.492 15.1432 141.328 14.7109 141.172C14.0391 140.927 13.4505 140.659 12.9453 140.367C12.4401 140.07 12.0469 139.703 11.7656 139.266C11.4896 138.828 11.3516 138.276 11.3516 137.609C11.3516 136.969 11.5 136.414 11.7969 135.945C12.099 135.471 12.5182 135.107 13.0547 134.852C13.5911 134.591 14.2135 134.461 14.9219 134.461C15.474 134.461 15.9688 134.544 16.4062 134.711C16.849 134.872 17.2266 135.109 17.5391 135.422C17.8568 135.734 18.099 136.12 18.2656 136.578C18.4375 137.031 18.5234 137.549 18.5234 138.133H16.4609C16.4609 137.81 16.4245 137.523 16.3516 137.273C16.2786 137.023 16.1745 136.812 16.0391 136.641C15.9036 136.464 15.7396 136.331 15.5469 136.242C15.3594 136.154 15.1458 136.109 14.9062 136.109C14.5625 136.109 14.2786 136.174 14.0547 136.305C13.8359 136.435 13.6745 136.612 13.5703 136.836C13.4714 137.06 13.4219 137.318 13.4219 137.609C13.4219 137.891 13.474 138.138 13.5781 138.352C13.6875 138.56 13.8698 138.75 14.125 138.922C14.3854 139.094 14.7422 139.268 15.1953 139.445C15.8724 139.695 16.4609 139.971 16.9609 140.273C17.4609 140.57 17.849 140.935 18.125 141.367C18.401 141.799 18.5391 142.346 18.5391 143.008C18.5391 143.685 18.3828 144.258 18.0703 144.727C17.763 145.195 17.3307 145.552 16.7734 145.797C16.2161 146.042 15.5677 146.164 14.8281 146.164C14.3542 146.164 13.8854 146.102 13.4219 145.977C12.9583 145.852 12.5365 145.648 12.1562 145.367C11.7812 145.081 11.4818 144.703 11.2578 144.234C11.0339 143.76 10.9219 143.18 10.9219 142.492H12.9922C12.9922 142.888 13.0443 143.216 13.1484 143.477C13.2526 143.737 13.3932 143.945 13.5703 144.102C13.7474 144.253 13.9453 144.359 14.1641 144.422C14.3828 144.484 14.6042 144.516 14.8281 144.516C15.1927 144.516 15.4948 144.453 15.7344 144.328C15.9792 144.203 16.1615 144.029 16.2812 143.805C16.4062 143.576 16.4688 143.315 16.4688 143.023ZM26.375 139.398H27.5391C27.9505 139.398 28.2891 139.328 28.5547 139.188C28.8255 139.042 29.026 138.844 29.1562 138.594C29.2917 138.339 29.3594 138.044 29.3594 137.711C29.3594 137.383 29.2995 137.099 29.1797 136.859C29.0599 136.615 28.8776 136.427 28.6328 136.297C28.3932 136.161 28.0859 136.094 27.7109 136.094C27.4089 136.094 27.1302 136.154 26.875 136.273C26.625 136.393 26.4245 136.565 26.2734 136.789C26.1276 137.008 26.0547 137.271 26.0547 137.578H23.9844C23.9844 136.964 24.1458 136.424 24.4688 135.961C24.7969 135.492 25.2396 135.125 25.7969 134.859C26.3542 134.594 26.9766 134.461 27.6641 134.461C28.4141 134.461 29.0703 134.586 29.6328 134.836C30.2005 135.081 30.6406 135.443 30.9531 135.922C31.2708 136.401 31.4297 136.995 31.4297 137.703C31.4297 138.042 31.349 138.38 31.1875 138.719C31.0312 139.052 30.7995 139.354 30.4922 139.625C30.1901 139.891 29.8177 140.107 29.375 140.273C28.9375 140.435 28.4349 140.516 27.8672 140.516H26.375V139.398ZM26.375 140.992V139.891H27.8672C28.5078 139.891 29.0625 139.966 29.5312 140.117C30.0052 140.263 30.3958 140.471 30.7031 140.742C31.0104 141.008 31.237 141.318 31.3828 141.672C31.5339 142.026 31.6094 142.406 31.6094 142.812C31.6094 143.344 31.5104 143.818 31.3125 144.234C31.1146 144.646 30.8359 144.995 30.4766 145.281C30.1224 145.568 29.7057 145.786 29.2266 145.938C28.7474 146.083 28.2292 146.156 27.6719 146.156C27.1875 146.156 26.7161 146.091 26.2578 145.961C25.8047 145.826 25.3958 145.625 25.0312 145.359C24.6667 145.089 24.3776 144.75 24.1641 144.344C23.9505 143.932 23.8438 143.456 23.8438 142.914H25.9141C25.9141 143.227 25.9896 143.505 26.1406 143.75C26.2969 143.995 26.5104 144.188 26.7812 144.328C27.0573 144.464 27.3672 144.531 27.7109 144.531C28.0911 144.531 28.4167 144.464 28.6875 144.328C28.9635 144.188 29.1745 143.99 29.3203 143.734C29.4661 143.474 29.5391 143.164 29.5391 142.805C29.5391 142.378 29.4583 142.031 29.2969 141.766C29.1354 141.5 28.9036 141.305 28.6016 141.18C28.3047 141.055 27.9505 140.992 27.5391 140.992H26.375ZM35.3047 140.766L33.6562 140.367L34.2891 134.625H40.5469V136.336H36L35.7031 138.992C35.8646 138.893 36.099 138.794 36.4062 138.695C36.7188 138.591 37.0703 138.539 37.4609 138.539C38.0026 138.539 38.487 138.628 38.9141 138.805C39.3411 138.977 39.7031 139.227 40 139.555C40.3021 139.883 40.5286 140.284 40.6797 140.758C40.8359 141.227 40.9141 141.758 40.9141 142.352C40.9141 142.872 40.8359 143.362 40.6797 143.82C40.5286 144.273 40.2969 144.677 39.9844 145.031C39.6719 145.38 39.2786 145.656 38.8047 145.859C38.3307 146.057 37.7734 146.156 37.1328 146.156C36.6484 146.156 36.1823 146.086 35.7344 145.945C35.2917 145.799 34.8932 145.589 34.5391 145.312C34.1849 145.031 33.901 144.688 33.6875 144.281C33.4792 143.875 33.3646 143.409 33.3438 142.883H35.3828C35.4193 143.232 35.513 143.529 35.6641 143.773C35.8151 144.018 36.013 144.206 36.2578 144.336C36.5078 144.466 36.7969 144.531 37.125 144.531C37.4219 144.531 37.6771 144.477 37.8906 144.367C38.1094 144.253 38.2891 144.094 38.4297 143.891C38.5703 143.688 38.6745 143.448 38.7422 143.172C38.8099 142.896 38.8438 142.594 38.8438 142.266C38.8438 141.948 38.8047 141.659 38.7266 141.398C38.6484 141.133 38.5286 140.904 38.3672 140.711C38.2057 140.518 38.0026 140.37 37.7578 140.266C37.5182 140.161 37.237 140.109 36.9141 140.109C36.4818 140.109 36.1484 140.174 35.9141 140.305C35.6849 140.435 35.4818 140.589 35.3047 140.766ZM49.9297 139.336V141.25C49.9297 142.125 49.8411 142.872 49.6641 143.492C49.487 144.112 49.2318 144.62 48.8984 145.016C48.5651 145.406 48.1667 145.695 47.7031 145.883C47.2396 146.065 46.724 146.156 46.1562 146.156C45.7031 146.156 45.2812 146.099 44.8906 145.984C44.5 145.865 44.1484 145.682 43.8359 145.438C43.5286 145.188 43.263 144.87 43.0391 144.484C42.8203 144.099 42.651 143.638 42.5312 143.102C42.4167 142.565 42.3594 141.948 42.3594 141.25V139.336C42.3594 138.461 42.4479 137.716 42.625 137.102C42.8073 136.487 43.0651 135.984 43.3984 135.594C43.7318 135.203 44.1302 134.919 44.5938 134.742C45.0573 134.56 45.5729 134.469 46.1406 134.469C46.599 134.469 47.0208 134.526 47.4062 134.641C47.7969 134.755 48.1458 134.935 48.4531 135.18C48.7656 135.419 49.0312 135.732 49.25 136.117C49.4688 136.497 49.6354 136.956 49.75 137.492C49.8698 138.023 49.9297 138.638 49.9297 139.336ZM47.8672 141.531V139.047C47.8672 138.609 47.8411 138.229 47.7891 137.906C47.7422 137.578 47.6719 137.299 47.5781 137.07C47.4844 136.841 47.3672 136.656 47.2266 136.516C47.0859 136.37 46.9245 136.263 46.7422 136.195C46.5599 136.128 46.3594 136.094 46.1406 136.094C45.8698 136.094 45.6276 136.148 45.4141 136.258C45.2005 136.362 45.0208 136.529 44.875 136.758C44.7292 136.987 44.6172 137.292 44.5391 137.672C44.4661 138.047 44.4297 138.505 44.4297 139.047V141.531C44.4297 141.969 44.4531 142.352 44.5 142.68C44.5521 143.008 44.625 143.289 44.7188 143.523C44.8177 143.758 44.9349 143.951 45.0703 144.102C45.2109 144.247 45.3724 144.357 45.5547 144.43C45.737 144.497 45.9375 144.531 46.1562 144.531C46.4323 144.531 46.6745 144.477 46.8828 144.367C47.0964 144.258 47.276 144.086 47.4219 143.852C47.5677 143.612 47.6771 143.302 47.75 142.922C47.8281 142.536 47.8672 142.073 47.8672 141.531ZM59.0703 139.336V141.25C59.0703 142.125 58.9818 142.872 58.8047 143.492C58.6276 144.112 58.3724 144.62 58.0391 145.016C57.7057 145.406 57.3073 145.695 56.8438 145.883C56.3802 146.065 55.8646 146.156 55.2969 146.156C54.8438 146.156 54.4219 146.099 54.0312 145.984C53.6406 145.865 53.2891 145.682 52.9766 145.438C52.6693 145.188 52.4036 144.87 52.1797 144.484C51.9609 144.099 51.7917 143.638 51.6719 143.102C51.5573 142.565 51.5 141.948 51.5 141.25V139.336C51.5 138.461 51.5885 137.716 51.7656 137.102C51.9479 136.487 52.2057 135.984 52.5391 135.594C52.8724 135.203 53.2708 134.919 53.7344 134.742C54.1979 134.56 54.7135 134.469 55.2812 134.469C55.7396 134.469 56.1615 134.526 56.5469 134.641C56.9375 134.755 57.2865 134.935 57.5938 135.18C57.9062 135.419 58.1719 135.732 58.3906 136.117C58.6094 136.497 58.776 136.956 58.8906 137.492C59.0104 138.023 59.0703 138.638 59.0703 139.336ZM57.0078 141.531V139.047C57.0078 138.609 56.9818 138.229 56.9297 137.906C56.8828 137.578 56.8125 137.299 56.7188 137.07C56.625 136.841 56.5078 136.656 56.3672 136.516C56.2266 136.37 56.0651 136.263 55.8828 136.195C55.7005 136.128 55.5 136.094 55.2812 136.094C55.0104 136.094 54.7682 136.148 54.5547 136.258C54.3411 136.362 54.1615 136.529 54.0156 136.758C53.8698 136.987 53.7578 137.292 53.6797 137.672C53.6068 138.047 53.5703 138.505 53.5703 139.047V141.531C53.5703 141.969 53.5938 142.352 53.6406 142.68C53.6927 143.008 53.7656 143.289 53.8594 143.523C53.9583 143.758 54.0755 143.951 54.2109 144.102C54.3516 144.247 54.513 144.357 54.6953 144.43C54.8776 144.497 55.0781 144.531 55.2969 144.531C55.5729 144.531 55.8151 144.477 56.0234 144.367C56.237 144.258 56.4167 144.086 56.5625 143.852C56.7083 143.612 56.8177 143.302 56.8906 142.922C56.9688 142.536 57.0078 142.073 57.0078 141.531ZM62.7344 144.141L62.7188 145.57C62.7188 146.128 62.5807 146.693 62.3047 147.266C62.0286 147.839 61.6719 148.312 61.2344 148.688L60.1406 148.086C60.2812 147.852 60.4115 147.615 60.5312 147.375C60.6562 147.135 60.7552 146.875 60.8281 146.594C60.9062 146.318 60.9453 146.008 60.9453 145.664V144.141H62.7344ZM71.9766 139.336V141.25C71.9766 142.125 71.888 142.872 71.7109 143.492C71.5339 144.112 71.2786 144.62 70.9453 145.016C70.612 145.406 70.2135 145.695 69.75 145.883C69.2865 146.065 68.7708 146.156 68.2031 146.156C67.75 146.156 67.3281 146.099 66.9375 145.984C66.5469 145.865 66.1953 145.682 65.8828 145.438C65.5755 145.188 65.3099 144.87 65.0859 144.484C64.8672 144.099 64.6979 143.638 64.5781 143.102C64.4635 142.565 64.4062 141.948 64.4062 141.25V139.336C64.4062 138.461 64.4948 137.716 64.6719 137.102C64.8542 136.487 65.112 135.984 65.4453 135.594C65.7786 135.203 66.1771 134.919 66.6406 134.742C67.1042 134.56 67.6198 134.469 68.1875 134.469C68.6458 134.469 69.0677 134.526 69.4531 134.641C69.8438 134.755 70.1927 134.935 70.5 135.18C70.8125 135.419 71.0781 135.732 71.2969 136.117C71.5156 136.497 71.6823 136.956 71.7969 137.492C71.9167 138.023 71.9766 138.638 71.9766 139.336ZM69.9141 141.531V139.047C69.9141 138.609 69.888 138.229 69.8359 137.906C69.7891 137.578 69.7188 137.299 69.625 137.07C69.5312 136.841 69.4141 136.656 69.2734 136.516C69.1328 136.37 68.9714 136.263 68.7891 136.195C68.6068 136.128 68.4062 136.094 68.1875 136.094C67.9167 136.094 67.6745 136.148 67.4609 136.258C67.2474 136.362 67.0677 136.529 66.9219 136.758C66.776 136.987 66.6641 137.292 66.5859 137.672C66.513 138.047 66.4766 138.505 66.4766 139.047V141.531C66.4766 141.969 66.5 142.352 66.5469 142.68C66.599 143.008 66.6719 143.289 66.7656 143.523C66.8646 143.758 66.9818 143.951 67.1172 144.102C67.2578 144.247 67.4193 144.357 67.6016 144.43C67.7839 144.497 67.9844 144.531 68.2031 144.531C68.4792 144.531 68.7214 144.477 68.9297 144.367C69.1432 144.258 69.3229 144.086 69.4688 143.852C69.6146 143.612 69.724 143.302 69.7969 142.922C69.875 142.536 69.9141 142.073 69.9141 141.531ZM81.1172 139.336V141.25C81.1172 142.125 81.0286 142.872 80.8516 143.492C80.6745 144.112 80.4193 144.62 80.0859 145.016C79.7526 145.406 79.3542 145.695 78.8906 145.883C78.4271 146.065 77.9115 146.156 77.3438 146.156C76.8906 146.156 76.4688 146.099 76.0781 145.984C75.6875 145.865 75.3359 145.682 75.0234 145.438C74.7161 145.188 74.4505 144.87 74.2266 144.484C74.0078 144.099 73.8385 143.638 73.7188 143.102C73.6042 142.565 73.5469 141.948 73.5469 141.25V139.336C73.5469 138.461 73.6354 137.716 73.8125 137.102C73.9948 136.487 74.2526 135.984 74.5859 135.594C74.9193 135.203 75.3177 134.919 75.7812 134.742C76.2448 134.56 76.7604 134.469 77.3281 134.469C77.7865 134.469 78.2083 134.526 78.5938 134.641C78.9844 134.755 79.3333 134.935 79.6406 135.18C79.9531 135.419 80.2188 135.732 80.4375 136.117C80.6562 136.497 80.8229 136.956 80.9375 137.492C81.0573 138.023 81.1172 138.638 81.1172 139.336ZM79.0547 141.531V139.047C79.0547 138.609 79.0286 138.229 78.9766 137.906C78.9297 137.578 78.8594 137.299 78.7656 137.07C78.6719 136.841 78.5547 136.656 78.4141 136.516C78.2734 136.37 78.112 136.263 77.9297 136.195C77.7474 136.128 77.5469 136.094 77.3281 136.094C77.0573 136.094 76.8151 136.148 76.6016 136.258C76.388 136.362 76.2083 136.529 76.0625 136.758C75.9167 136.987 75.8047 137.292 75.7266 137.672C75.6536 138.047 75.6172 138.505 75.6172 139.047V141.531C75.6172 141.969 75.6406 142.352 75.6875 142.68C75.7396 143.008 75.8125 143.289 75.9062 143.523C76.0052 143.758 76.1224 143.951 76.2578 144.102C76.3984 144.247 76.5599 144.357 76.7422 144.43C76.9245 144.497 77.125 144.531 77.3438 144.531C77.6198 144.531 77.862 144.477 78.0703 144.367C78.2839 144.258 78.4635 144.086 78.6094 143.852C78.7552 143.612 78.8646 143.302 78.9375 142.922C79.0156 142.536 79.0547 142.073 79.0547 141.531Z" fill="#C8FCEA"/>
<path d="M265.914 9.595C265.87 9.49625 264.811 7.1475 262.457 4.79375C259.321 1.6575 255.36 0 251 0C246.64 0 242.679 1.6575 239.542 4.79375C237.189 7.1475 236.125 9.5 236.086 9.595C236.029 9.72289 236 9.86129 236 10.0012C236 10.1412 236.029 10.2796 236.086 10.4075C236.13 10.5062 237.189 12.8538 239.542 15.2075C242.679 18.3425 246.64 20 251 20C255.36 20 259.321 18.3425 262.457 15.2075C264.811 12.8538 265.87 10.5062 265.914 10.4075C265.971 10.2796 266 10.1412 266 10.0012C266 9.86129 265.971 9.72289 265.914 9.595ZM251 18C247.152 18 243.791 16.6012 241.009 13.8438C239.867 12.7084 238.896 11.4137 238.125 10C238.896 8.58617 239.867 7.29147 241.009 6.15625C243.791 3.39875 247.152 2 251 2C254.847 2 258.209 3.39875 260.991 6.15625C262.135 7.2912 263.109 8.5859 263.881 10C262.98 11.6825 259.054 18 251 18ZM251 4C249.813 4 248.653 4.35189 247.667 5.01118C246.68 5.67047 245.911 6.60754 245.457 7.7039C245.003 8.80026 244.884 10.0067 245.115 11.1705C245.347 12.3344 245.918 13.4035 246.757 14.2426C247.596 15.0818 248.666 15.6532 249.829 15.8847C250.993 16.1162 252.2 15.9974 253.296 15.5433C254.392 15.0892 255.33 14.3201 255.989 13.3334C256.648 12.3467 257 11.1867 257 10C256.998 8.40921 256.366 6.88405 255.241 5.75919C254.116 4.63433 252.591 4.00165 251 4ZM251 14C250.209 14 249.436 13.7654 248.778 13.3259C248.12 12.8864 247.607 12.2616 247.304 11.5307C247.002 10.7998 246.923 9.99556 247.077 9.21964C247.231 8.44372 247.612 7.73098 248.172 7.17157C248.731 6.61216 249.444 6.2312 250.22 6.07686C250.996 5.92252 251.8 6.00173 252.531 6.30448C253.262 6.60723 253.886 7.11992 254.326 7.77772C254.765 8.43552 255 9.20887 255 10C255 11.0609 254.579 12.0783 253.828 12.8284C253.078 13.5786 252.061 14 251 14Z" fill="#C8FCEA"/>
</svg>
