<svg width="31" height="21" viewBox="0 0 31 21" fill="none" xmlns="http://www.w3.org/2000/svg">
<path d="M30.6604 10.5931C30.6166 10.4943 29.5579 8.14558 27.2041 5.79183C24.0679 2.65558 20.1066 0.998077 15.7466 0.998077C11.3866 0.998077 7.42538 2.65558 4.28913 5.79183C1.93538 8.14558 0.871631 10.4981 0.832881 10.5931C0.776023 10.721 0.746643 10.8594 0.746643 10.9993C0.746643 11.1393 0.776023 11.2777 0.832881 11.4056C0.876631 11.5043 1.93538 13.8518 4.28913 16.2056C7.42538 19.3406 11.3866 20.9981 15.7466 20.9981C20.1066 20.9981 24.0679 19.3406 27.2041 16.2056C29.5579 13.8518 30.6166 11.5043 30.6604 11.4056C30.7172 11.2777 30.7466 11.1393 30.7466 10.9993C30.7466 10.8594 30.7172 10.721 30.6604 10.5931ZM15.7466 18.9981C11.8991 18.9981 8.53788 17.5993 5.75538 14.8418C4.61369 13.7064 3.64237 12.4118 2.87163 10.9981C3.64216 9.58425 4.6135 8.28955 5.75538 7.15433C8.53788 4.39683 11.8991 2.99808 15.7466 2.99808C19.5941 2.99808 22.9554 4.39683 25.7379 7.15433C26.8818 8.28928 27.8552 9.58397 28.6279 10.9981C27.7266 12.6806 23.8004 18.9981 15.7466 18.9981ZM15.7466 4.99808C14.5599 4.99808 13.3999 5.34997 12.4132 6.00926C11.4265 6.66855 10.6575 7.60562 10.2034 8.70198C9.74923 9.79833 9.63041 11.0047 9.86192 12.1686C10.0934 13.3325 10.6649 14.4016 11.504 15.2407C12.3431 16.0798 13.4122 16.6513 14.5761 16.8828C15.74 17.1143 16.9464 16.9955 18.0427 16.5414C19.1391 16.0872 20.0762 15.3182 20.7354 14.3315C21.3947 13.3448 21.7466 12.1848 21.7466 10.9981C21.745 9.40729 21.1123 7.88212 19.9874 6.75726C18.8626 5.6324 17.3374 4.99973 15.7466 4.99808ZM15.7466 14.9981C14.9555 14.9981 14.1821 14.7635 13.5244 14.324C12.8666 13.8844 12.3539 13.2597 12.0511 12.5288C11.7484 11.7979 11.6691 10.9936 11.8235 10.2177C11.9778 9.44179 12.3588 8.72906 12.9182 8.16965C13.4776 7.61024 14.1903 7.22928 14.9663 7.07494C15.7422 6.9206 16.5465 6.99981 17.2774 7.30256C18.0083 7.60531 18.633 8.118 19.0725 8.7758C19.512 9.43359 19.7466 10.207 19.7466 10.9981C19.7466 12.0589 19.3252 13.0764 18.5751 13.8265C17.8249 14.5766 16.8075 14.9981 15.7466 14.9981Z" fill="#C8FCEA"/>
</svg>
