<svg width="26" height="27" viewBox="0 0 26 27" fill="none" xmlns="http://www.w3.org/2000/svg">
<path d="M9.50018 11.5538C9.65224 11.466 9.77849 11.3397 9.86626 11.1876C9.95403 11.0356 10.0002 10.8631 10.0002 10.6875V1.6875C9.99929 1.52807 9.96029 1.37116 9.88644 1.22986C9.81258 1.08857 9.70601 0.966979 9.57562 0.875238C9.44522 0.783497 9.29478 0.724263 9.13684 0.702477C8.9789 0.680692 8.81804 0.696986 8.66768 0.75C5.74891 1.78302 3.29433 3.8233 1.7452 6.50409C0.196079 9.18487 -0.345994 12.3303 0.216433 15.375C0.245586 15.5324 0.31212 15.6806 0.41044 15.807C0.508761 15.9333 0.635992 16.0343 0.781433 16.1012C0.912502 16.1625 1.05549 16.1941 1.20018 16.1938C1.3757 16.1938 1.54814 16.1477 1.70018 16.06L9.50018 11.5538ZM8.00018 3.2025V10.11L2.01518 13.5637C2.00018 13.375 2.00018 13.185 2.00018 13C2.00196 10.973 2.56305 8.9857 3.62168 7.25705C4.6803 5.5284 6.19541 4.12539 8.00018 3.2025ZM24.2927 6.565C24.2814 6.5425 24.2702 6.51875 24.2564 6.49625C24.2427 6.47375 24.2314 6.455 24.2177 6.435C23.0715 4.47725 21.4332 2.85335 19.4654 1.72451C17.4976 0.595668 15.2688 0.00115752 13.0002 0C12.735 0 12.4806 0.105357 12.2931 0.292893C12.1055 0.48043 12.0002 0.734784 12.0002 1V12.4788L2.14893 18.2162C2.03462 18.2825 1.93457 18.3708 1.85457 18.4759C1.77456 18.5811 1.7162 18.7011 1.68284 18.8289C1.64948 18.9568 1.64179 19.09 1.66022 19.2208C1.67864 19.3517 1.72281 19.4776 1.79018 19.5912C3.23552 22.0525 5.45069 23.9696 8.09384 25.0468C10.737 26.1241 13.6612 26.3015 16.4152 25.5517C19.1692 24.8019 21.5999 23.1666 23.3321 20.8982C25.0644 18.6297 26.002 15.8542 26.0002 13C26.0031 10.7427 25.4143 8.52396 24.2927 6.565ZM14.0002 2.045C15.5862 2.19099 17.1216 2.67945 18.5004 3.47666C19.8793 4.27387 21.0686 5.36083 21.9864 6.6625L14.0002 11.3138V2.045ZM13.0002 24C11.2545 23.9955 9.53459 23.5777 7.98137 22.7808C6.42815 21.9839 5.08571 20.8305 4.06393 19.415L13.4889 13.9263L13.5164 13.9088L22.9877 8.3925C23.7608 10.0684 24.0997 11.9119 23.9733 13.7532C23.8469 15.5945 23.2593 17.3745 22.2645 18.929C21.2697 20.4836 19.8997 21.7629 18.2807 22.6491C16.6617 23.5353 14.8458 23.9998 13.0002 24Z" fill="#C8FCEA"/>
</svg>
