<svg width="27" height="27" viewBox="0 0 27 27" fill="none" xmlns="http://www.w3.org/2000/svg">
<path d="M13.7177 0.890137C11.1465 0.890137 8.63308 1.65257 6.49524 3.08103C4.3574 4.50949 2.69116 6.53981 1.70722 8.91525C0.723284 11.2907 0.465841 13.9046 0.967449 16.4263C1.46906 18.9481 2.70719 21.2644 4.52527 23.0825C6.34335 24.9006 8.65973 26.1387 11.1815 26.6403C13.7032 27.142 16.3171 26.8845 18.6925 25.9006C21.068 24.9166 23.0983 23.2504 24.5268 21.1125C25.9552 18.9747 26.7177 16.4613 26.7177 13.8901C26.714 10.4434 25.3432 7.13895 22.906 4.70177C20.4688 2.26458 17.1644 0.893776 13.7177 0.890137ZM13.7177 24.8901C11.5421 24.8901 9.41532 24.245 7.60638 23.0363C5.79744 21.8276 4.38755 20.1096 3.55498 18.0997C2.72242 16.0897 2.50458 13.8779 2.92902 11.7441C3.35346 9.61035 4.40111 7.65034 5.93948 6.11196C7.47786 4.57358 9.43787 3.52594 11.5717 3.1015C13.7055 2.67706 15.9172 2.8949 17.9272 3.72746C19.9372 4.56003 21.6551 5.96992 22.8638 7.77886C24.0725 9.5878 24.7177 11.7145 24.7177 13.8901C24.7143 16.8065 23.5544 19.6025 21.4922 21.6647C19.43 23.7268 16.634 24.8868 13.7177 24.8901ZM16.4252 9.59764L12.1314 13.8901L16.4252 18.1826C16.5181 18.2755 16.5918 18.3858 16.642 18.5072C16.6923 18.6286 16.7182 18.7587 16.7182 18.8901C16.7182 19.0215 16.6923 19.1516 16.642 19.273C16.5918 19.3944 16.5181 19.5047 16.4252 19.5976C16.3322 19.6905 16.2219 19.7642 16.1006 19.8145C15.9792 19.8648 15.8491 19.8907 15.7177 19.8907C15.5863 19.8907 15.4562 19.8648 15.3348 19.8145C15.2134 19.7642 15.1031 19.6905 15.0102 19.5976L10.0102 14.5976C9.91718 14.5048 9.84342 14.3945 9.7931 14.2731C9.74277 14.1517 9.71687 14.0216 9.71687 13.8901C9.71687 13.7587 9.74277 13.6286 9.7931 13.5072C9.84342 13.3858 9.91718 13.2755 10.0102 13.1826L15.0102 8.18264C15.1031 8.08973 15.2134 8.01603 15.3348 7.96574C15.4562 7.91546 15.5863 7.88958 15.7177 7.88958C15.8491 7.88958 15.9792 7.91546 16.1006 7.96574C16.2219 8.01603 16.3322 8.08973 16.4252 8.18264C16.5181 8.27555 16.5918 8.38585 16.642 8.50724C16.6923 8.62863 16.7182 8.75874 16.7182 8.89014C16.7182 9.02153 16.6923 9.15164 16.642 9.27303C16.5918 9.39443 16.5181 9.50473 16.4252 9.59764Z" fill="#C8FCEA"/>
</svg>
