<svg width="95" height="66" viewBox="0 0 95 66" fill="none" xmlns="http://www.w3.org/2000/svg">
<g filter="url(#filter0_d_6_54)">
<path d="M78.6537 1.32452C75.5452 0.441508 71.6853 0 67.0743 0H51.2206V55.6299H70.7269C74.7162 55.6299 78.1356 55.0326 80.9852 53.8379C83.8865 52.5913 86.1143 50.7993 87.6686 48.4619C89.2229 46.0726 90 43.1898 90 39.8136C90 36.9048 89.456 34.5415 88.368 32.7235C87.28 30.9055 85.7775 29.5031 83.8606 28.5162C81.9954 27.5293 79.8972 26.854 77.5657 26.4904V26.1009C79.8453 25.6853 81.7623 24.9322 83.3166 23.8414C84.9227 22.6987 86.1143 21.2962 86.8914 19.6341C87.7204 17.92 88.1349 15.9722 88.1349 13.7906C88.1349 10.4144 87.3318 7.71339 85.7257 5.68765C84.1714 3.66192 81.8141 2.20754 78.6537 1.32452Z" fill="#C8FCEA"/>
<path d="M16.3459 1.33333C19.4544 0.444445 23.3141 0 27.925 0H43.7782V56H24.2725C20.2833 56 16.864 55.3987 14.0146 54.1961C11.1133 52.9412 8.88558 51.1373 7.33134 48.7843C5.7771 46.3791 4.99998 43.4771 4.99998 40.0784C4.99998 37.1503 5.54397 34.7712 6.63193 32.9412C7.7199 31.1111 9.22233 29.6993 11.1392 28.7059C13.0043 27.7124 15.1025 27.0327 17.4339 26.6667V26.2745C15.1543 25.8562 13.2374 25.098 11.6832 24C10.0772 22.8497 8.88558 21.4379 8.10846 19.7647C7.27953 18.0392 6.86507 16.0784 6.86507 13.8824C6.86507 10.4837 7.66809 7.76471 9.27414 5.72549C10.8284 3.68628 13.1856 2.22222 16.3459 1.33333Z" fill="#C8FCEA"/>
<mask id="mask0_6_54" style="mask-type:alpha" maskUnits="userSpaceOnUse" x="32" y="11" width="32" height="31">
<ellipse cx="48.1072" cy="26.7826" rx="15.1786" ry="15.2174" fill="#0097c1b9"/>
</mask>
<g mask="url(#mask0_6_54)">
<path d="M78.6537 1.32452C75.5452 0.441508 71.6853 0 67.0743 0H51.2206V55.6299H70.7269C74.7162 55.6299 78.1356 55.0326 80.9852 53.8379C83.8865 52.5913 86.1143 50.7993 87.6686 48.4619C89.2229 46.0726 90 43.1898 90 39.8136C90 36.9048 89.456 34.5415 88.368 32.7235C87.28 30.9055 85.7775 29.5031 83.8606 28.5162C81.9954 27.5293 79.8972 26.854 77.5657 26.4904V26.1009C79.8453 25.6853 81.7623 24.9322 83.3166 23.8414C84.9227 22.6987 86.1143 21.2962 86.8914 19.6341C87.7204 17.92 88.1349 15.9722 88.1349 13.7906C88.1349 10.4144 87.3318 7.71339 85.7257 5.68765C84.1714 3.66192 81.8141 2.20754 78.6537 1.32452Z" fill="#33357A"/>
<path d="M16.3459 1.33333C19.4544 0.444445 23.3141 0 27.925 0H43.7782V56H24.2726C20.2833 56 16.864 55.3987 14.0146 54.1961C11.1133 52.9412 8.88561 51.1373 7.33137 48.7843C5.77713 46.3791 5.00002 43.4771 5.00002 40.0784C5.00002 37.1503 5.544 34.7712 6.63196 32.9412C7.71993 31.1111 9.22236 29.6993 11.1393 28.7059C13.0043 27.7124 15.1026 27.0327 17.4339 26.6667V26.2745C15.1544 25.8562 13.2375 25.098 11.6832 24C10.0772 22.8497 8.88561 21.4379 8.10849 19.7647C7.27956 18.0392 6.8651 16.0784 6.8651 13.8824C6.8651 10.4837 7.66812 7.76471 9.27417 5.72549C10.8284 3.68628 13.1857 2.22222 16.3459 1.33333Z" fill="#33357A"/>
</g>
<g clip-path="url(#clip0_6_54)">
<path d="M46.7624 15.3387H48.1973V16.6583C50.2369 16.8009 51.6362 17.6292 52.3951 19.143C52.7034 19.7533 52.8734 20.4428 52.905 21.2116V21.4494H50.9958C50.98 20.1971 50.5096 19.2975 49.5847 18.7507C49.2605 18.5684 48.9048 18.4455 48.5175 18.3821C48.4147 18.3663 48.3079 18.3584 48.1973 18.3584V24.4215C49.8179 24.9209 50.8772 25.3092 51.3753 25.5866C52.7508 26.3713 53.4386 27.6235 53.4386 29.3434C53.4386 31.0316 52.8892 32.371 51.7903 33.3618C51.6164 33.5203 51.4227 33.6629 51.2093 33.7897C50.4187 34.2573 49.4147 34.5427 48.1973 34.6457V37.1542H46.7624V34.6457C44.2722 34.4793 42.6792 33.4489 41.9836 31.5547C41.7622 30.9206 41.6515 30.2192 41.6515 29.4504C41.6515 29.3077 41.6555 29.1651 41.6634 29.0224H43.5844C43.6951 30.2272 43.8651 31.0236 44.0943 31.412C44.1259 31.4596 44.1576 31.515 44.1892 31.5785C44.7584 32.3552 45.6161 32.8189 46.7624 32.9695V26.3475C45.2604 25.8878 44.2406 25.4637 43.703 25.0754C42.5567 24.2511 41.9836 23.0662 41.9836 21.5207C41.9836 19.1509 43.114 17.6252 45.375 16.9436C45.8019 16.8168 46.2644 16.7217 46.7624 16.6583V15.3387ZM46.7624 24.2313V18.3821C45.2129 18.5961 44.2999 19.3174 44.0232 20.5459C43.9757 20.7757 43.952 21.0214 43.952 21.2829C43.952 22.7413 44.8888 23.7241 46.7624 24.2313ZM48.1973 26.5615V32.9695C49.1854 32.8506 49.9286 32.5494 50.4266 32.0659C51.1065 31.416 51.4464 30.6036 51.4464 29.6287C51.4464 28.638 51.067 27.9009 50.308 27.4175C49.8416 27.1242 49.138 26.8389 48.1973 26.5615Z" fill="#C8FCEA"/>
</g>
</g>
<defs>
<filter id="filter0_d_6_54" x="0" y="0" width="95" height="66" filterUnits="userSpaceOnUse" color-interpolation-filters="sRGB">
<feFlood flood-opacity="0" result="BackgroundImageFix"/>
<feColorMatrix in="SourceAlpha" type="matrix" values="0 0 0 0 0 0 0 0 0 0 0 0 0 0 0 0 0 0 127 0" result="hardAlpha"/>
<feOffset dy="5"/>
<feGaussianBlur stdDeviation="2.5"/>
<feComposite in2="hardAlpha" operator="out"/>
<feColorMatrix type="matrix" values="0 0 0 0 0 0 0 0 0 0 0 0 0 0 0 0 0 0 0.4 0"/>
<feBlend mode="normal" in2="BackgroundImageFix" result="effect1_dropShadow_6_54"/>
<feBlend mode="normal" in="SourceGraphic" in2="effect1_dropShadow_6_54" result="shape"/>
</filter>
<clipPath id="clip0_6_54">
<rect width="12.1429" height="22.5217" fill="white" transform="translate(41.4286 15.2174)"/>
</clipPath>
</defs>
</svg>
