<svg width="63" height="38" viewBox="0 0 63 38" fill="none" xmlns="http://www.w3.org/2000/svg">
<path d="M2.98438 30.2812V37H0.921875V28.5469H2.86719L2.98438 30.2812ZM2.67969 32.4688H2.04688C2.04688 31.8802 2.11719 31.3385 2.25781 30.8438C2.40365 30.349 2.61719 29.9193 2.89844 29.5547C3.17969 29.1849 3.52604 28.8984 3.9375 28.6953C4.35417 28.4922 4.83594 28.3906 5.38281 28.3906C5.76302 28.3906 6.11198 28.4479 6.42969 28.5625C6.7474 28.6719 7.02083 28.8464 7.25 29.0859C7.48438 29.3203 7.66406 29.6276 7.78906 30.0078C7.91406 30.3828 7.97656 30.8333 7.97656 31.3594V37H5.91406V31.5703C5.91406 31.1745 5.85677 30.8646 5.74219 30.6406C5.63281 30.4167 5.47396 30.2604 5.26562 30.1719C5.05729 30.0781 4.80729 30.0312 4.51562 30.0312C4.19271 30.0312 3.91406 30.0964 3.67969 30.2266C3.45052 30.3516 3.26042 30.526 3.10938 30.75C2.96354 30.974 2.85417 31.2318 2.78125 31.5234C2.71354 31.8151 2.67969 32.1302 2.67969 32.4688ZM7.82031 32.0859L6.96875 32.2422C6.97396 31.7109 7.04688 31.2135 7.1875 30.75C7.32812 30.2812 7.53385 29.8724 7.80469 29.5234C8.08073 29.1693 8.42188 28.8932 8.82812 28.6953C9.23958 28.4922 9.71354 28.3906 10.25 28.3906C10.6667 28.3906 11.0417 28.4505 11.375 28.5703C11.7135 28.6849 12.0026 28.8698 12.2422 29.125C12.4818 29.375 12.6641 29.7005 12.7891 30.1016C12.9193 30.5026 12.9844 30.9922 12.9844 31.5703V37H10.9062V31.5625C10.9062 31.151 10.849 30.8359 10.7344 30.6172C10.625 30.3984 10.4661 30.2474 10.2578 30.1641C10.0495 30.0755 9.80469 30.0312 9.52344 30.0312C9.23698 30.0312 8.98698 30.0859 8.77344 30.1953C8.5651 30.2995 8.38802 30.4453 8.24219 30.6328C8.10156 30.8203 7.99479 31.0391 7.92188 31.2891C7.85417 31.5339 7.82031 31.7995 7.82031 32.0859ZM18.6328 37.1562C17.9922 37.1562 17.4167 37.0521 16.9062 36.8438C16.3958 36.6354 15.9609 36.3464 15.6016 35.9766C15.2474 35.6016 14.974 35.1667 14.7812 34.6719C14.5938 34.1719 14.5 33.6354 14.5 33.0625V32.75C14.5 32.099 14.5938 31.5078 14.7812 30.9766C14.9688 30.4401 15.2344 29.9792 15.5781 29.5938C15.9219 29.2083 16.3333 28.9115 16.8125 28.7031C17.2917 28.4948 17.8203 28.3906 18.3984 28.3906C18.9974 28.3906 19.526 28.4922 19.9844 28.6953C20.4427 28.8932 20.8255 29.1745 21.1328 29.5391C21.4401 29.9036 21.6719 30.3411 21.8281 30.8516C21.9844 31.3568 22.0625 31.9167 22.0625 32.5312V33.3984H15.4375V31.9766H20.0312V31.8203C20.0208 31.4922 19.9583 31.1927 19.8438 30.9219C19.7292 30.6458 19.5521 30.4271 19.3125 30.2656C19.0729 30.099 18.763 30.0156 18.3828 30.0156C18.0755 30.0156 17.8073 30.0833 17.5781 30.2188C17.3542 30.349 17.1667 30.5365 17.0156 30.7812C16.8698 31.0208 16.7604 31.3073 16.6875 31.6406C16.6146 31.974 16.5781 32.3438 16.5781 32.75V33.0625C16.5781 33.4167 16.625 33.7448 16.7188 34.0469C16.8177 34.349 16.9609 34.612 17.1484 34.8359C17.3411 35.0547 17.5703 35.2266 17.8359 35.3516C18.1068 35.4714 18.4141 35.5312 18.7578 35.5312C19.1901 35.5312 19.5807 35.4479 19.9297 35.2812C20.2839 35.1094 20.5911 34.8568 20.8516 34.5234L21.8906 35.6016C21.7135 35.862 21.474 36.112 21.1719 36.3516C20.875 36.5911 20.5156 36.7865 20.0938 36.9375C19.6719 37.0833 19.1849 37.1562 18.6328 37.1562ZM25.5078 30.2734V37H23.4453V28.5469H25.3984L25.5078 30.2734ZM28.0781 28.4922L28.0469 30.4141C27.9323 30.3932 27.8021 30.3776 27.6562 30.3672C27.5156 30.3568 27.3828 30.3516 27.2578 30.3516C26.9401 30.3516 26.6615 30.3958 26.4219 30.4844C26.1823 30.5677 25.9818 30.6901 25.8203 30.8516C25.6641 31.013 25.5443 31.2109 25.4609 31.4453C25.3776 31.6745 25.3307 31.9349 25.3203 32.2266L24.875 32.1719C24.875 31.6354 24.9297 31.138 25.0391 30.6797C25.1484 30.2214 25.3073 29.8203 25.5156 29.4766C25.724 29.1328 25.9844 28.8672 26.2969 28.6797C26.6146 28.487 26.9792 28.3906 27.3906 28.3906C27.5052 28.3906 27.6276 28.401 27.7578 28.4219C27.8932 28.4375 28 28.4609 28.0781 28.4922ZM32.5234 35.5312C32.8151 35.5312 33.0755 35.474 33.3047 35.3594C33.5339 35.2448 33.7161 35.0833 33.8516 34.875C33.9922 34.6667 34.0677 34.4245 34.0781 34.1484H36.0234C36.013 34.7214 35.8516 35.2344 35.5391 35.6875C35.2266 36.1406 34.8099 36.5 34.2891 36.7656C33.7734 37.026 33.1953 37.1562 32.5547 37.1562C31.9036 37.1562 31.3359 37.0469 30.8516 36.8281C30.3672 36.6094 29.9635 36.3047 29.6406 35.9141C29.3229 35.5234 29.0833 35.0703 28.9219 34.5547C28.7656 34.0391 28.6875 33.487 28.6875 32.8984V32.6484C28.6875 32.0599 28.7656 31.5078 28.9219 30.9922C29.0833 30.4766 29.3229 30.0234 29.6406 29.6328C29.9635 29.2422 30.3672 28.9375 30.8516 28.7188C31.3359 28.5 31.901 28.3906 32.5469 28.3906C33.2292 28.3906 33.8281 28.5234 34.3438 28.7891C34.8646 29.0547 35.2708 29.4297 35.5625 29.9141C35.8594 30.3984 36.013 30.9688 36.0234 31.625H34.0781C34.0677 31.3229 34 31.0521 33.875 30.8125C33.75 30.5729 33.5729 30.3802 33.3438 30.2344C33.1146 30.0885 32.8359 30.0156 32.5078 30.0156C32.1589 30.0156 31.8672 30.0885 31.6328 30.2344C31.4036 30.3802 31.224 30.5807 31.0938 30.8359C30.9688 31.0859 30.8802 31.3672 30.8281 31.6797C30.7812 31.987 30.7578 32.3099 30.7578 32.6484V32.8984C30.7578 33.2422 30.7812 33.5703 30.8281 33.8828C30.8802 34.1953 30.9688 34.4766 31.0938 34.7266C31.224 34.9714 31.4036 35.1667 31.6328 35.3125C31.8672 35.4583 32.1641 35.5312 32.5234 35.5312ZM42.0547 35.2031V31.3047C42.0547 31.0182 42.0052 30.7708 41.9062 30.5625C41.8073 30.3542 41.6562 30.1927 41.4531 30.0781C41.25 29.9635 40.9922 29.9062 40.6797 29.9062C40.4036 29.9062 40.1615 29.9531 39.9531 30.0469C39.75 30.1406 39.5938 30.2734 39.4844 30.4453C39.375 30.612 39.3203 30.8047 39.3203 31.0234H37.25C37.25 30.6745 37.3333 30.3438 37.5 30.0312C37.6667 29.7135 37.9036 29.4323 38.2109 29.1875C38.5234 28.9375 38.8958 28.7422 39.3281 28.6016C39.7656 28.4609 40.2552 28.3906 40.7969 28.3906C41.4375 28.3906 42.0078 28.5 42.5078 28.7188C43.013 28.9323 43.4089 29.2552 43.6953 29.6875C43.987 30.1198 44.1328 30.6641 44.1328 31.3203V35.0078C44.1328 35.4297 44.1589 35.7917 44.2109 36.0938C44.2682 36.3906 44.3516 36.6484 44.4609 36.8672V37H42.3594C42.2604 36.7865 42.1849 36.5156 42.1328 36.1875C42.0807 35.8542 42.0547 35.526 42.0547 35.2031ZM42.3438 31.8516L42.3594 33.0781H41.0547C40.7318 33.0781 40.4479 33.112 40.2031 33.1797C39.9583 33.2422 39.7578 33.3359 39.6016 33.4609C39.4453 33.5807 39.3281 33.7266 39.25 33.8984C39.1719 34.0651 39.1328 34.2552 39.1328 34.4688C39.1328 34.6771 39.1797 34.8646 39.2734 35.0312C39.3724 35.1979 39.513 35.3307 39.6953 35.4297C39.8828 35.5234 40.1016 35.5703 40.3516 35.5703C40.7161 35.5703 41.0339 35.4974 41.3047 35.3516C41.5755 35.2005 41.7865 35.0182 41.9375 34.8047C42.0885 34.5911 42.1693 34.388 42.1797 34.1953L42.7734 35.0859C42.7005 35.2995 42.5911 35.526 42.4453 35.7656C42.2995 36.0052 42.112 36.2292 41.8828 36.4375C41.6536 36.6458 41.3776 36.8177 41.0547 36.9531C40.7318 37.0885 40.3568 37.1562 39.9297 37.1562C39.3828 37.1562 38.8932 37.0469 38.4609 36.8281C38.0286 36.6094 37.6875 36.3099 37.4375 35.9297C37.1875 35.5495 37.0625 35.1172 37.0625 34.6328C37.0625 34.1849 37.1458 33.7891 37.3125 33.4453C37.4792 33.1016 37.7266 32.8125 38.0547 32.5781C38.3828 32.3385 38.7891 32.1589 39.2734 32.0391C39.763 31.9141 40.3229 31.8516 40.9531 31.8516H42.3438ZM51.0625 35.2031V25H53.1406V37H51.2656L51.0625 35.2031ZM45.6328 32.875V32.7109C45.6328 32.0651 45.7057 31.4792 45.8516 30.9531C46.0026 30.4219 46.2214 29.9661 46.5078 29.5859C46.7943 29.2057 47.1406 28.9115 47.5469 28.7031C47.9583 28.4948 48.4245 28.3906 48.9453 28.3906C49.4505 28.3906 49.8906 28.4922 50.2656 28.6953C50.6458 28.8984 50.9688 29.1875 51.2344 29.5625C51.5052 29.9375 51.7214 30.3828 51.8828 30.8984C52.0443 31.4089 52.1615 31.9714 52.2344 32.5859V33.0312C52.1615 33.6302 52.0443 34.1797 51.8828 34.6797C51.7214 35.1797 51.5052 35.6172 51.2344 35.9922C50.9688 36.362 50.6458 36.6484 50.2656 36.8516C49.8854 37.0547 49.4401 37.1562 48.9297 37.1562C48.4141 37.1562 47.9505 37.0495 47.5391 36.8359C47.1328 36.6224 46.7865 36.3229 46.5 35.9375C46.2188 35.5521 46.0026 35.099 45.8516 34.5781C45.7057 34.0573 45.6328 33.4896 45.6328 32.875ZM47.7031 32.7109V32.875C47.7031 33.2396 47.7344 33.5807 47.7969 33.8984C47.8594 34.2161 47.9609 34.4974 48.1016 34.7422C48.2422 34.9818 48.4219 35.1693 48.6406 35.3047C48.8646 35.4401 49.1354 35.5078 49.4531 35.5078C49.8594 35.5078 50.1927 35.4193 50.4531 35.2422C50.7188 35.0599 50.9245 34.8125 51.0703 34.5C51.2161 34.1823 51.3099 33.8255 51.3516 33.4297V32.2031C51.3307 31.8906 51.276 31.6016 51.1875 31.3359C51.1042 31.0703 50.9844 30.8411 50.8281 30.6484C50.6771 30.4557 50.4896 30.3047 50.2656 30.1953C50.0417 30.0859 49.776 30.0312 49.4688 30.0312C49.151 30.0312 48.8802 30.1016 48.6562 30.2422C48.4323 30.3776 48.25 30.5677 48.1094 30.8125C47.9688 31.0573 47.8646 31.3411 47.7969 31.6641C47.7344 31.987 47.7031 32.3359 47.7031 32.7109ZM54.6406 32.8594V32.6953C54.6406 32.0755 54.7292 31.5052 54.9062 30.9844C55.0833 30.4583 55.3411 30.0026 55.6797 29.6172C56.0182 29.2318 56.4323 28.9323 56.9219 28.7188C57.4115 28.5 57.9688 28.3906 58.5938 28.3906C59.2292 28.3906 59.7917 28.5 60.2812 28.7188C60.776 28.9323 61.1927 29.2318 61.5312 29.6172C61.8698 30.0026 62.1276 30.4583 62.3047 30.9844C62.4818 31.5052 62.5703 32.0755 62.5703 32.6953V32.8594C62.5703 33.474 62.4818 34.0443 62.3047 34.5703C62.1276 35.0911 61.8698 35.5469 61.5312 35.9375C61.1927 36.3229 60.7786 36.6224 60.2891 36.8359C59.7995 37.0495 59.2396 37.1562 58.6094 37.1562C57.9844 37.1562 57.4245 37.0495 56.9297 36.8359C56.4349 36.6224 56.0182 36.3229 55.6797 35.9375C55.3411 35.5469 55.0833 35.0911 54.9062 34.5703C54.7292 34.0443 54.6406 33.474 54.6406 32.8594ZM56.7031 32.6953V32.8594C56.7031 33.2292 56.7396 33.5755 56.8125 33.8984C56.8854 34.2214 56.9974 34.5052 57.1484 34.75C57.2995 34.9948 57.4948 35.1875 57.7344 35.3281C57.9792 35.4635 58.2708 35.5312 58.6094 35.5312C58.9427 35.5312 59.2292 35.4635 59.4688 35.3281C59.7083 35.1875 59.9036 34.9948 60.0547 34.75C60.2109 34.5052 60.3255 34.2214 60.3984 33.8984C60.4714 33.5755 60.5078 33.2292 60.5078 32.8594V32.6953C60.5078 32.3307 60.4714 31.9896 60.3984 31.6719C60.3255 31.349 60.2109 31.0651 60.0547 30.8203C59.9036 30.5703 59.7057 30.375 59.4609 30.2344C59.2214 30.0885 58.9323 30.0156 58.5938 30.0156C58.2604 30.0156 57.974 30.0885 57.7344 30.2344C57.4948 30.375 57.2995 30.5703 57.1484 30.8203C56.9974 31.0651 56.8854 31.349 56.8125 31.6719C56.7396 31.9896 56.7031 32.3307 56.7031 32.6953Z" fill="#C8FCEA"/>
<path d="M45 21C45 21.2652 44.8946 21.5196 44.7071 21.7071C44.5196 21.8946 44.2652 22 44 22H20C19.7348 22 19.4804 21.8946 19.2929 21.7071C19.1054 21.5196 19 21.2652 19 21V1C19 0.734784 19.1054 0.48043 19.2929 0.292893C19.4804 0.105357 19.7348 0 20 0C20.2652 0 20.5196 0.105357 20.7071 0.292893C20.8946 0.48043 21 0.734784 21 1V12.7962L27.3413 7.25C27.5138 7.09895 27.733 7.0118 27.9622 7.00315C28.1914 6.9945 28.4166 7.06488 28.6 7.2025L35.9513 12.7162L43.3412 6.25C43.4381 6.15408 43.5536 6.079 43.6806 6.02935C43.8076 5.9797 43.9434 5.95654 44.0796 5.9613C44.2159 5.96605 44.3497 5.99862 44.4729 6.057C44.5961 6.11538 44.7061 6.19833 44.7961 6.30077C44.8861 6.4032 44.9541 6.52296 44.9961 6.65267C45.0381 6.78238 45.0532 6.9193 45.0403 7.05503C45.0274 7.19076 44.9869 7.32243 44.9213 7.44194C44.8557 7.56146 44.7664 7.66629 44.6588 7.75L36.6588 14.75C36.4862 14.9011 36.267 14.9882 36.0378 14.9969C35.8086 15.0055 35.5835 14.9351 35.4 14.7975L28.0487 9.28625L21 15.4538V20H44C44.2652 20 44.5196 20.1054 44.7071 20.2929C44.8946 20.4804 45 20.7348 45 21Z" fill="#C8FCEA"/>
</svg>
