<svg width="26" height="26" viewBox="0 0 26 26" fill="none" xmlns="http://www.w3.org/2000/svg">
<path d="M13 0C10.4288 0 7.91543 0.762437 5.77759 2.1909C3.63975 3.61935 1.97351 5.64968 0.989572 8.02512C0.0056327 10.4006 -0.251811 13.0144 0.249797 15.5362C0.751405 18.0579 1.98953 20.3743 3.80762 22.1924C5.6257 24.0105 7.94208 25.2486 10.4638 25.7502C12.9856 26.2518 15.5995 25.9944 17.9749 25.0104C20.3503 24.0265 22.3807 22.3603 23.8091 20.2224C25.2376 18.0846 26 15.5712 26 13C25.9964 9.5533 24.6256 6.24882 22.1884 3.81163C19.7512 1.37445 16.4467 0.00363977 13 0ZM13 24C10.8244 24 8.69767 23.3549 6.88873 22.1462C5.07979 20.9375 3.66989 19.2195 2.83733 17.2095C2.00477 15.1995 1.78693 12.9878 2.21137 10.854C2.63581 8.72022 3.68345 6.7602 5.22183 5.22183C6.76021 3.68345 8.72022 2.6358 10.854 2.21136C12.9878 1.78692 15.1995 2.00476 17.2095 2.83733C19.2195 3.66989 20.9375 5.07979 22.1462 6.88873C23.3549 8.69767 24 10.8244 24 13C23.9967 15.9164 22.8367 18.7123 20.7745 20.7745C18.7123 22.8367 15.9164 23.9967 13 24ZM17.7075 9.2925C17.8004 9.38541 17.8741 9.49571 17.9244 9.6171C17.9747 9.7385 18.0006 9.8686 18.0006 10C18.0006 10.1314 17.9747 10.2615 17.9244 10.3829C17.8741 10.5043 17.8004 10.6146 17.7075 10.7075C17.6146 10.8004 17.5043 10.8741 17.3829 10.9244C17.2615 10.9747 17.1314 11.0006 17 11.0006C16.8686 11.0006 16.7385 10.9747 16.6171 10.9244C16.4957 10.8741 16.3854 10.8004 16.2925 10.7075L13 7.41375L9.70751 10.7075C9.51987 10.8951 9.26537 11.0006 9.00001 11.0006C8.73464 11.0006 8.48015 10.8951 8.29251 10.7075C8.10486 10.5199 7.99945 10.2654 7.99945 10C7.99945 9.73464 8.10486 9.48014 8.29251 9.2925L12.2925 5.2925C12.3854 5.19952 12.4957 5.12576 12.6171 5.07544C12.7385 5.02512 12.8686 4.99921 13 4.99921C13.1314 4.99921 13.2615 5.02512 13.3829 5.07544C13.5043 5.12576 13.6146 5.19952 13.7075 5.2925L17.7075 9.2925ZM17.7075 15.2925C17.8005 15.3854 17.8742 15.4957 17.9246 15.6171C17.9749 15.7385 18.0008 15.8686 18.0008 16C18.0008 16.1314 17.9749 16.2615 17.9246 16.3829C17.8742 16.5043 17.8005 16.6146 17.7075 16.7075L13.7075 20.7075C13.6146 20.8005 13.5043 20.8742 13.3829 20.9246C13.2615 20.9749 13.1314 21.0008 13 21.0008C12.8686 21.0008 12.7385 20.9749 12.6171 20.9246C12.4957 20.8742 12.3854 20.8005 12.2925 20.7075L8.29251 16.7075C8.10486 16.5199 7.99945 16.2654 7.99945 16C7.99945 15.7346 8.10486 15.4801 8.29251 15.2925C8.48015 15.1049 8.73464 14.9994 9.00001 14.9994C9.26537 14.9994 9.51987 15.1049 9.70751 15.2925L13 18.5863L16.2925 15.2925C16.3854 15.1995 16.4957 15.1258 16.6171 15.0754C16.7385 15.0251 16.8686 14.9992 17 14.9992C17.1314 14.9992 17.2615 15.0251 17.3829 15.0754C17.5043 15.1258 17.6146 15.1995 17.7075 15.2925Z" fill="#C8FCEA"/>
</svg>
